<?xml version="1.0" encoding="utf-8"?>
<!-- Generator: Adobe Illustrator 23.0.0, SVG Export Plug-In . SVG Version: 6.00 Build 0)  -->
<svg version="1.1" id="Layer_1" xmlns="http://www.w3.org/2000/svg" xmlns:xlink="http://www.w3.org/1999/xlink" x="0px" y="0px"
	 viewBox="0 0 297 51" style="enable-background:new 0 0 297 51;" xml:space="preserve">
<style type="text/css">
	.st0{fill:#00A8FF;}
	.st1{fill:#3FA9F5;}
	.st2{fill:#0097E6;}
</style>
<g>
	<path class="st0" d="M57.7,19.9c0-0.7-0.4-1.1-1.1-1.1h-1.9v-5.2h5.8c2.2,0,3.2,1,3.2,3.2v24.5c0,0.7,0.4,1.1,1.1,1.1h1.9v5.1h-5.7
		c-2.3,0-3.2-1-3.2-3.2V19.9z"/>
	<path class="st0" d="M71.9,29.4c0-0.7-0.4-1.1-1.1-1.1H69v-5.2h5.8c2.2,0,3.2,1,3.2,3.2v15c0,0.7,0.4,1.1,1.1,1.1h1.9v5.1h-5.8
		c-2.2,0-3.2-1-3.2-3.2V29.4z M72.2,13.7h5.3v5.6h-5.3V13.7z"/>
	<path class="st0" d="M86,29.4c0-0.7-0.4-1.1-1.1-1.1H83v-5.2h5.6c2.1,0,3.2,1,3.2,2.7v0.7c0,0.5,0,1.1,0,1.1h0.1
		c1.1-2.4,4.1-5.1,7.9-5.1c3.7,0,6.1,1.7,7.1,5h0.1c1.3-2.6,4.4-5,8.3-5c5.1,0,8,2.9,8,9.3v9.5c0,0.7,0.4,1.1,1.1,1.1h1.9v5.1h-5.7
		c-2.3,0-3.2-1-3.2-3.2V33.1c0-2.8-0.5-4.9-3.3-4.9c-3,0-5.2,2.5-5.8,5.6c-0.3,1-0.4,2-0.4,3.1v10.7h-6.1V33.1
		c0-2.6-0.4-4.9-3.3-4.9c-3.1,0-5.1,2.5-5.9,5.6c-0.2,1-0.4,2-0.4,3.1v10.7h-6V29.4z"/>
	<path class="st0" d="M139.7,22.7c5.3,0,7,3,7,3h0.1c0,0,0-0.6,0-1.4v-4.3c0-0.7-0.4-1.1-1.1-1.1h-1.9v-5.2h5.8c2.2,0,3.2,1,3.2,3.2
		v24.5c0,0.7,0.4,1.1,1.1,1.1h1.9v5.1h-5.6c-2.2,0-3-1.1-3-2.5c0-0.5,0-0.9,0-0.9h-0.1c0,0-2,4-7.6,4c-6.6,0-10.8-5.2-10.8-12.8
		C128.6,27.7,133.3,22.7,139.7,22.7z M146.9,35.4c0-3.8-2-7.5-6-7.5c-3.3,0-6.1,2.7-6.1,7.5c0,4.6,2.4,7.6,6,7.6
		C144,43.1,146.9,40.8,146.9,35.4z"/>
	<path class="st0" d="M172.9,32.3h0.8v-0.2c0-3.5-1.4-4.8-4.5-4.8c-1.1,0-3.2,0.3-3.2,1.6v1.3h-5.6v-2.6c0-4.5,6.4-5,8.9-5
		c8.1,0,10.5,4.3,10.5,9.7v9.1c0,0.7,0.4,1.1,1.1,1.1h1.9v5.1h-5.4c-2.2,0-3.1-1.2-3.1-2.7c0-0.6,0-1.1,0-1.1h-0.1
		c0,0-1.9,4.3-7.4,4.3c-4.3,0-8.3-2.7-8.3-7.6C158.4,32.9,168.9,32.3,172.9,32.3z M168.2,43.4c3.2,0,5.5-3.4,5.5-6.4v-0.6h-1.1
		c-3.2,0-8.2,0.4-8.2,3.8C164.5,41.9,165.7,43.4,168.2,43.4z"/>
	<path class="st0" d="M200,19.9c0-0.7-0.4-1.1-1.1-1.1h-1.9v-5.2h5.8c2.2,0,3.2,1,3.2,3.2v8.6c0,1.2-0.1,2.1-0.1,2.1h0.1
		c1.1-2.3,4.2-4.8,8.4-4.8c5.4,0,8.5,2.8,8.5,9.3v9.5c0,0.7,0.4,1.1,1.1,1.1h1.9v5.1h-5.8c-2.2,0-3.2-1-3.2-3.2V33.2
		c0-3-0.8-5-3.9-5c-3.2,0-5.7,2.1-6.6,5.1c-0.3,1-0.4,2-0.4,3.2v11.2H200V19.9z"/>
	<path class="st0" d="M241.7,22.7c7.5,0,13.4,5.3,13.4,12.8c0,7.5-5.9,12.8-13.4,12.8c-7.4,0-13.3-5.3-13.3-12.8
		C228.3,28,234.3,22.7,241.7,22.7z M241.7,43c4,0,7.3-3.1,7.3-7.6c0-4.5-3.3-7.6-7.3-7.6c-3.9,0-7.2,3.1-7.2,7.6
		C234.5,40,237.8,43,241.7,43z"/>
	<path class="st0" d="M260.6,39.9c0,0,3.1,3.6,7.3,3.6c1.9,0,3.3-0.8,3.3-2.4c0-3.4-12.9-3.4-12.9-11.3c0-4.9,4.4-7.1,9.5-7.1
		c3.3,0,8.6,1.1,8.6,5.1v2.5H271v-1.2c0-1.1-1.7-1.7-3.1-1.7c-2.2,0-3.6,0.8-3.6,2.2c0,3.8,12.9,3.1,12.9,11.2
		c0,4.6-4.1,7.5-9.4,7.5c-6.7,0-10.1-4.3-10.1-4.3L260.6,39.9z"/>
	<path class="st0" d="M283,28.1h-3.2v-4.8h3.3v-6.6h5.9v6.6h5.5v4.8h-5.5v9.8c0,4,3.2,4.6,4.8,4.6c0.7,0,1.1-0.1,1.1-0.1v5.3
		c0,0-0.8,0.1-1.9,0.1c-3.4,0-10.1-1-10.1-9.2V28.1z"/>
</g>
<rect x="189" y="13.7" class="st1" width="0.5" height="34.1"/>
<g>
	<g>
		<polyline class="st2" points="22.3,8.1 3,8.1 3,47.5 41.9,47.5 41.9,27.8 32,27.8 32,37.7 12.7,37.7 12.7,18 22.4,18 22.4,8.1 		
			"/>
		<rect x="22.4" y="17.7" class="st2" width="9.6" height="10.1"/>
		<rect x="39.7" y="17" class="st2" width="7.9" height="7.9"/>
		<rect x="27.7" y="4.7" class="st2" width="9.9" height="10"/>
		<rect x="41.9" y="3.9" class="st2" width="8.5" height="7.7"/>
	</g>
	<g>
		<polygon class="st0" points="12.7,37.2 12.7,18 22.4,18 22.4,8.1 3,8.1 3,46.9 		"/>
		<polygon class="st0" points="32,17.9 32,17.7 22.4,17.7 22.4,27.5 		"/>
		<rect x="39.7" y="17" class="st0" width="7.9" height="7.9"/>
		<polyline class="st0" points="37.6,12.3 37.6,4.7 27.7,4.7 27.7,14.7 35.2,14.7 		"/>
		<polygon class="st0" points="46,3.9 41.9,3.9 41.9,8 		"/>
	</g>
</g>
</svg>
